ply
format ascii 1.0
comment VCGLIB generated
comment TextureFile dummy.png
element vertex 195
property float x
property float y
property float z
property float nx
property float ny
property float nz
property float texture_u
property float texture_v
element face 94
property list uchar int vertex_indices
end_header
-250 123.449 -28.19985 -1 -0 -1e-06 0.237487 0.811349
-250 0 28.19985 -1 -0 -1e-06 0.237487 0.75319
-250 142.831 -2.69055 -1 -0 -1e-06 0.237487 0.820479
250 0 28.19985 1 0 0 0.001929 0.75319
250 123.449 -28.19985 1 0 0 0.001929 0.811349
250 142.831 -2.69055 1 0 0 0.001929 0.820479
-250 0 -28.19985 -1 0 0 0.237487 0.75319
-250 0 28.19985 -1 0 0 0.237487 0.75319
-250 123.449 -28.19985 -1 0 0 0.237487 0.811349
250 0 -28.19985 1 0 0 0.001929 0.75319
250 346.372 -2.69055 1 0 0 0.001929 0.916371
250 500 28.19975 1 0 0 0.001929 0.988747
-250 0 28.19985 -1 0 1e-06 0.237487 0.75319
-250 346.372 -2.69055 -1 0 1e-06 0.237487 0.916371
-250 142.831 -2.69055 -1 0 1e-06 0.237487 0.820479
250 352.769 -17.23475 1 0 0 0.001929 0.919385
-250 346.372 -2.69055 -1 -0 -0 0.237487 0.916371
-250 500 28.19975 -1 -0 -0 0.237487 0.988747
-250 352.769 -17.23475 -1 -0 -0 0.237487 0.919385
250 370.732 -17.23475 1 0 0 0.001929 0.927847
-250 352.769 -17.23475 -1 -0 -1e-06 0.237487 0.919385
-250 500 28.19975 -1 -0 -1e-06 0.237487 0.988747
-250 370.732 -17.23475 -1 -0 -1e-06 0.237487 0.927847
250 375.677 -28.19985 1 0 0 0.001929 0.930177
-250 370.732 -17.23475 -1 1e-06 -2e-06 0.237487 0.927847
-250 500 28.19975 -1 1e-06 -2e-06 0.237487 0.988747
-250 375.677 -28.19985 -1 1e-06 -2e-06 0.237487 0.930177
250 500 -28.19985 1 0 0 0.001929 0.988747
-250 375.677 -28.19985 -1 0 0 0.237487 0.930177
-250 500 -28.19985 -1 0 0 0.237487 0.988747
250 0 -28.19985 -0 -0 -1 0.001929 0.75319
231.2657 123.449 -28.19985 -0 -0 -1 0.010755 0.811349
250 123.449 -28.19985 -0 -0 -1 0.001929 0.811349
250 0 28.19985 0 -1 0 0.001929 0.75319
-250 0 -28.19985 0 -1 0 0.237487 0.75319
250 0 -28.19985 0 -1 0 0.001929 0.75319
250 500 28.19975 0 0 1 0.001929 0.988747
-250 0 28.19985 0 0 1 0.237487 0.75319
250 0 28.19985 0 0 1 0.001929 0.75319
250 500 -28.19985 0 1 0 0.001929 0.988747
-250 500 28.19975 0 1 0 0.237487 0.988747
250 500 28.19975 0 1 0 0.001929 0.988747
92.49101 434.922 -28.19985 -0 -0 -1 0.076134 0.958088
61.52402 443.215 -28.19985 -0 -0 -1 0.090723 0.961995
250 500 -28.19985 -0 -0 -1 0.001929 0.988747
-50.41298 435.987 -28.19985 -0.017156 -0.8475501 -0.5304381 0.143458 0.70859
-92.49098 429.976 -17.23475 -0.017156 -0.8475501 -0.5304381 0.163282 0.705758
-94.05199 436.871 -28.19985 -0.017156 -0.8475501 -0.5304381 0.164017 0.709006
33.62502 145.876 -2.69055 -0 -0 -1 0.103866 0.821914
92.89902 403.176 -2.69055 -0 -0 -1 0.075942 0.943132
250 142.831 -2.69055 -0 -0 -1 0.001929 0.820479
33.62502 145.876 -2.69055 -0.018348 0.725638 -0.687832 0.103866 0.821914
-174.613 116.431 -28.19985 -0.018348 0.725638 -0.687832 0.201971 0.808042
-198.856 139.998 -2.69055 -0.018348 0.725638 -0.687832 0.213392 0.819145
-92.49098 405.616 -2.69055 -0.01125 -0.8546918 -0.5190139 0.163282 0.694282
92.49101 412.014 -17.23475 -0.01125 -0.8546918 -0.5190139 0.076134 0.697296
92.89902 403.176 -2.69055 -0.01125 -0.8546918 -0.5190139 0.075942 0.693132
92.49101 412.014 -17.23475 0 0 -1 0.076134 0.947296
38.36702 429.976 -17.23475 0 0 -1 0.101633 0.955758
92.49101 429.976 -17.23475 0 0 -1 0.076134 0.955758
-92.49098 412.014 -17.23475 -0 -0 -1 0.163282 0.947296
-92.49098 429.976 -17.23475 -0 -0 -1 0.163282 0.955758
-250 346.372 -2.69055 0 0 -1 0.237487 0.916371
-92.49098 405.616 -2.69055 0 0 -1 0.163282 0.944282
-250 142.831 -2.69055 0 0 -1 0.237487 0.820479
176.8059 372.172 -2.69055 -0 -0 -1 0.036412 0.928526
250 346.372 -2.69055 -0 -0 -1 0.001929 0.916371
-250 346.372 -2.69055 0.3460859 -0.9201108 -0.18336 0.237487 0.666371
-202.353 366.841 -15.47355 0.3460859 -0.9201108 -0.18336 0.215039 0.676014
-92.49098 405.616 -2.69055 0.3460859 -0.9201108 -0.18336 0.163282 0.694282
250 346.372 -2.69055 -0.3648781 -0.8522573 -0.3748621 0.001929 0.666371
185.8891 380.217 -17.23475 -0.3648781 -0.8522573 -0.3748621 0.032133 0.682316
250 352.769 -17.23475 -0.3648781 -0.8522573 -0.3748621 0.001929 0.669385
250 352.769 -17.23475 -0 -0 -1 0.001929 0.919385
185.8891 380.217 -17.23475 -0 -0 -1 0.032133 0.932316
250 370.732 -17.23475 -0 -0 -1 0.001929 0.927847
-143.655 410.732 -17.23475 0 0 -1 0.187386 0.946692
92.49101 429.976 -17.23475 -0.3243369 -0.8622898 -0.3889239 0.076134 0.705758
250 375.677 -28.19985 -0.3243369 -0.8622898 -0.3889239 0.001929 0.680177
250 370.732 -17.23475 -0.3243369 -0.8622898 -0.3889239 0.001929 0.677847
-143.655 410.732 -17.23475 0.2967109 -0.7888438 -0.5382269 0.187386 0.696692
-94.05199 436.871 -28.19985 0.2967109 -0.7888438 -0.5382269 0.164017 0.709006
-92.49098 429.976 -17.23475 0.2967109 -0.7888438 -0.5382269 0.163282 0.705758
250 375.677 -28.19985 0 0 -1 0.001929 0.930177
-250 500 -28.19985 -0 -0 -1 0.237487 0.988747
-94.05199 436.871 -28.19985 -0 -0 -1 0.164017 0.959006
-162.361 414.232 -28.19985 -0 -0 -1 0.196199 0.948341
33.62502 145.876 -2.69055 0 0.7510254 -0.6602733 0.103866 0.821914
76.90302 123.449 -28.19985 0 0.7510254 -0.6602733 0.083478 0.811349
12.69601 123.449 -28.19985 0 0.7510254 -0.6602733 0.113726 0.811349
-198.856 139.998 -2.69055 0.04406001 0.7954791 -0.6043771 0.213392 0.819145
-250 123.449 -28.19985 0.04406001 0.7954791 -0.6043771 0.237487 0.811349
-250 142.831 -2.69055 0.04406001 0.7954791 -0.6043771 0.237487 0.820479
186.8016 127.312 -23.79945 0.029718 0.255369 -0.9663869 0.031703 0.814402
170.5717 112.549 -28.19985 0.029718 0.255369 -0.9663869 0.039349 0.806213
76.90302 123.449 -28.19985 0.029718 0.255369 -0.9663869 0.083478 0.811349
231.2657 123.449 -28.19985 -0.06240598 0.3474709 -0.9356118 0.010755 0.811349
170.5717 112.549 -28.19985 -0.06240598 0.3474709 -0.9356118 0.039349 0.806213
186.8016 127.312 -23.79945 -0.06240598 0.3474709 -0.9356118 0.031703 0.814402
250 142.831 -2.69055 0.008639001 0.7931561 -0.6089571 0.001929 0.820479
231.2657 123.449 -28.19985 0.008639001 0.7931561 -0.6089571 0.010755 0.811349
186.8016 127.312 -23.79945 0.008639001 0.7931561 -0.6089571 0.031703 0.814402
250 142.831 -2.69055 0.011113 0.7894877 -0.6136658 0.001929 0.820479
186.8016 127.312 -23.79945 0.011113 0.7894877 -0.6136658 0.031703 0.814402
33.62502 145.876 -2.69055 0.011113 0.7894877 -0.6136658 0.103866 0.821914
170.5717 112.549 -28.19985 -0 -0 -1 0.039349 0.806213
12.69601 123.449 -28.19985 -0 -0 -1 0.113726 0.811349
76.90302 123.449 -28.19985 -0 -0 -1 0.083478 0.811349
-174.613 116.431 -28.19985 -0 -0 -1 0.201971 0.808042
-250 0 -28.19985 -0 -0 -1 0.237487 0.75319
-250 123.449 -28.19985 -0 -0 -1 0.237487 0.811349
176.8059 372.172 -2.69055 -0.2609299 -0.7664416 -0.5869267 0.036412 0.678526
92.49101 412.014 -17.23475 -0.2609299 -0.7664416 -0.5869267 0.076134 0.697296
185.8891 380.217 -17.23475 -0.2609299 -0.7664416 -0.5869267 0.032133 0.682316
-169.314 383.118 -17.23475 -0 -0 -1 0.199474 0.933683
-210.208 376.651 -17.23475 -0 -0 -1 0.21874 0.930636
-162.361 414.232 -28.19985 0.3722101 -0.8460702 -0.3816081 0.196199 0.698341
-250 370.732 -17.23475 0.3722101 -0.8460702 -0.3816081 0.237487 0.677847
-250 375.677 -28.19985 0.3722101 -0.8460702 -0.3816081 0.237487 0.680177
-250 375.677 -28.19985 -0 -0 -1 0.237487 0.930177
-169.314 383.118 -17.23475 0.02487699 -0.1573179 -0.9872347 0.199474 0.683683
-202.353 366.841 -15.47355 0.02487699 -0.1573179 -0.9872347 0.215039 0.676014
-210.208 376.651 -17.23475 0.02487699 -0.1573179 -0.9872347 0.21874 0.680636
-210.208 376.651 -17.23475 0.09844203 -0.09894902 -0.9902112 0.21874 0.680636
-202.353 366.841 -15.47355 0.09844203 -0.09894902 -0.9902112 0.215039 0.676014
-224.616 362.317 -17.23475 0.09844203 -0.09894902 -0.9902112 0.225528 0.673883
-250 370.732 -17.23475 0 0 -1 0.237487 0.927847
-224.616 362.317 -17.23475 0 0 -1 0.225528 0.923883
-250 352.769 -17.23475 0 0 -1 0.237487 0.919385
-224.616 362.317 -17.23475 0.3255461 -0.8655034 -0.3806882 0.225528 0.673883
-250 346.372 -2.69055 0.3255461 -0.8655034 -0.3806882 0.237487 0.666371
-250 352.769 -17.23475 0.3255461 -0.8655034 -0.3806882 0.237487 0.669385
-92.49098 405.616 -2.69055 0.3255459 -0.8655028 -0.3806899 0.163282 0.694282
-169.314 383.118 -17.23475 0.3255459 -0.8655028 -0.3806899 0.199474 0.683683
-92.49098 412.014 -17.23475 0.3255459 -0.8655028 -0.3806899 0.163282 0.697296
76.84001 435.108 -28.19985 9.999998e-07 -0.9057137 -0.4238899 0.083507 0.708176
92.49101 429.976 -17.23475 9.999998e-07 -0.9057137 -0.4238899 0.076134 0.705758
38.36702 429.976 -17.23475 9.999998e-07 -0.9057137 -0.4238899 0.101633 0.705758
38.36702 429.976 -17.23475 0.06485401 -0.5549901 -0.8293251 0.101633 0.705758
-50.41298 435.987 -28.19985 0.06485401 -0.5549901 -0.8293251 0.143458 0.70859
28.91002 445.257 -28.19985 0.06485401 -0.5549901 -0.8293251 0.106088 0.712957
38.36702 429.976 -17.23475 -0.2046959 -0.3867128 -0.8991957 0.101633 0.705758
61.52402 443.215 -28.19985 -0.2046959 -0.3867128 -0.8991957 0.090723 0.711995
76.84001 435.108 -28.19985 -0.2046959 -0.3867128 -0.8991957 0.083507 0.708176
38.36702 429.976 -17.23475 -0.037413 -0.597797 -0.800774 0.101633 0.705758
28.91002 445.257 -28.19985 -0.037413 -0.597797 -0.800774 0.106088 0.712957
61.52402 443.215 -28.19985 -0.037413 -0.597797 -0.800774 0.090723 0.711995
-50.41298 435.987 -28.19985 -0 -0 -1 0.143458 0.95859
28.91002 445.257 -28.19985 0 0 -1 0.106088 0.962957
-198.856 139.998 -2.69055 -0 -0 -1 0.213392 0.819145
-250 346.372 -2.69055 -1 -0 -1e-06 0.237487 0.916371
-250 0 28.19985 0 -1 0 0.237487 0.75319
-250 500 28.19975 0 0 1 0.237487 0.988747
-250 500 -28.19985 0 1 0 0.237487 0.988747
76.84001 435.108 -28.19985 0 0 -1 0.083507 0.958176
-50.41298 435.987 -28.19985 -0 -0.8768911 -0.480689 0.143458 0.70859
38.36702 429.976 -17.23475 -0 -0.8768911 -0.480689 0.101633 0.705758
-92.49098 429.976 -17.23475 -0 -0.8768911 -0.480689 0.163282 0.705758
33.62502 145.876 -2.69055 -0.028562 0.7622231 -0.6466841 0.103866 0.821914
12.69601 123.449 -28.19985 -0.028562 0.7622231 -0.6466841 0.113726 0.811349
-174.613 116.431 -28.19985 -0.028562 0.7622231 -0.6466841 0.201971 0.808042
-92.49098 405.616 -2.69055 -0 -0.9153663 -0.4026221 0.163282 0.694282
-92.49098 412.014 -17.23475 -0 -0.9153663 -0.4026221 0.163282 0.697296
92.49101 412.014 -17.23475 -0 -0.9153663 -0.4026221 0.076134 0.697296
250 346.372 -2.69055 -0.268592 -0.7619969 -0.589253 0.001929 0.666371
176.8059 372.172 -2.69055 -0.268592 -0.7619969 -0.589253 0.036412 0.678526
185.8891 380.217 -17.23475 -0.268592 -0.7619969 -0.589253 0.032133 0.682316
92.49101 434.922 -28.19985 -0.3243369 -0.8622898 -0.3889239 0.076134 0.708088
-143.655 410.732 -17.23475 0.2409169 -0.7269387 -0.6430547 0.187386 0.696692
-162.361 414.232 -28.19985 0.2409169 -0.7269387 -0.6430547 0.196199 0.698341
-94.05199 436.871 -28.19985 0.2409169 -0.7269387 -0.6430547 0.164017 0.709006
33.62502 145.876 -2.69055 3.700001e-05 0.7510572 -0.6602372 0.103866 0.821914
186.8016 127.312 -23.79945 3.700001e-05 0.7510572 -0.6602372 0.031703 0.814402
76.90302 123.449 -28.19985 3.700001e-05 0.7510572 -0.6602372 0.083478 0.811349
-198.856 139.998 -2.69055 0.07127199 0.7654938 -0.6394838 0.213392 0.819145
-174.613 116.431 -28.19985 0.07127199 0.7654938 -0.6394838 0.201971 0.808042
-250 123.449 -28.19985 0.07127199 0.7654938 -0.6394838 0.237487 0.811349
250 142.831 -2.69055 0 0.7962521 -0.604965 0.001929 0.820479
250 123.449 -28.19985 0 0.7962521 -0.604965 0.001929 0.811349
231.2657 123.449 -28.19985 0 0.7962521 -0.604965 0.010755 0.811349
176.8059 372.172 -2.69055 -0.3023889 -0.8183408 -0.4887529 0.036412 0.678526
92.89902 403.176 -2.69055 -0.3023889 -0.8183408 -0.4887529 0.075942 0.693132
92.49101 412.014 -17.23475 -0.3023889 -0.8183408 -0.4887529 0.076134 0.697296
-162.361 414.232 -28.19985 0.2617602 -0.6959215 -0.6687114 0.196199 0.698341
-143.655 410.732 -17.23475 0.2617602 -0.6959215 -0.6687114 0.187386 0.696692
-250 370.732 -17.23475 0.2617602 -0.6959215 -0.6687114 0.237487 0.677847
-224.616 362.317 -17.23475 0.20874 -0.819345 -0.533949 0.225528 0.673883
-202.353 366.841 -15.47355 0.20874 -0.819345 -0.533949 0.215039 0.676014
-250 346.372 -2.69055 0.20874 -0.819345 -0.533949 0.237487 0.666371
-92.49098 405.616 -2.69055 0.3273379 -0.7294247 -0.6006577 0.163282 0.694282
-202.353 366.841 -15.47355 0.3273379 -0.7294247 -0.6006577 0.215039 0.676014
-169.314 383.118 -17.23475 0.3273379 -0.7294247 -0.6006577 0.199474 0.683683
76.84001 435.108 -28.19985 -0.010844 -0.911514 -0.411126 0.083507 0.708176
92.49101 434.922 -28.19985 -0.010844 -0.911514 -0.411126 0.076134 0.708088
92.49101 429.976 -17.23475 -0.010844 -0.911514 -0.411126 0.076134 0.705758
3 0 1 2 
3 3 4 5 
3 6 7 8 
3 3 9 4 
3 3 10 11 
3 12 13 14 
3 11 10 15 
3 16 17 18 
3 11 15 19 
3 20 21 22 
3 11 19 23 
3 24 25 26 
3 11 23 27 
3 28 17 29 
3 30 31 32 
3 33 34 35 
3 36 37 38 
3 39 40 41 
3 42 43 44 
3 45 46 47 
3 48 49 50 
3 51 52 53 
3 54 55 56 
3 57 58 59 
3 60 61 58 
3 62 63 64 
3 50 65 66 
3 67 68 69 
3 70 71 72 
3 73 74 75 
3 60 76 61 
3 77 78 79 
3 80 81 82 
3 83 42 44 
3 84 85 86 
3 87 88 89 
3 90 91 92 
3 93 94 95 
3 96 97 98 
3 99 100 101 
3 102 103 104 
3 105 106 107 
3 108 109 110 
3 109 105 30 
3 111 112 113 
3 74 59 75 
3 76 114 115 
3 116 117 118 
3 84 86 119 
3 120 121 122 
3 123 124 125 
3 126 127 128 
3 126 76 115 
3 129 130 131 
3 132 133 134 
3 135 136 137 
3 138 139 140 
3 141 142 143 
3 144 145 146 
3 84 147 85 
3 44 148 84 
3 63 149 64 
3 3 5 10 
3 1 21 150 
3 30 105 31 
3 33 151 34 
3 36 152 37 
3 39 153 40 
3 42 154 43 
3 155 156 157 
3 48 63 49 
3 158 159 160 
3 161 162 163 
3 57 60 58 
3 50 49 65 
3 164 165 166 
3 77 167 78 
3 168 169 170 
3 171 172 173 
3 174 175 176 
3 177 178 179 
3 105 108 106 
3 109 108 105 
3 180 181 182 
3 74 57 59 
3 76 60 114 
3 183 184 185 
3 126 115 127 
3 186 187 188 
3 189 190 191 
3 192 193 194 
3 84 148 147 
3 44 43 148 
3 63 48 149 
